<?xml version="1.0" encoding="UTF-8"?>
<!DOCTYPE svg PUBLIC "-//W3C//DTD SVG 1.1//EN" "http://www.w3.org/Graphics/SVG/1.1/DTD/svg11.dtd">
<svg width="295mm" height="244mm" viewBox="0 0 29500 24400" version="1.1" baseProfile="tiny" xmlns="http://www.w3.org/2000/svg" stroke-width="28.222" stroke-linejoin="round" xml:space="preserve">
 <path fill="rgb(255,255,255)" stroke="none" d="M 14758,24359 L 0,24359 0,0 29515,0 29515,24359 14758,24359 Z"/>
 <path fill="none" stroke="rgb(179,179,179)" stroke-linejoin="round" d="M 15501,22830 L 3459,22830 3459,2270 27543,2270 27543,22830 15501,22830 Z"/>
 <path fill="none" stroke="rgb(179,179,179)" stroke-linejoin="round" d="M 27543,22829 L 3459,22829"/>
 <path fill="none" stroke="rgb(179,179,179)" stroke-linejoin="round" d="M 27543,20544 L 3459,20544"/>
 <path fill="none" stroke="rgb(179,179,179)" stroke-linejoin="round" d="M 27543,18259 L 3459,18259"/>
 <path fill="none" stroke="rgb(179,179,179)" stroke-linejoin="round" d="M 27543,15975 L 3459,15975"/>
 <path fill="none" stroke="rgb(179,179,179)" stroke-linejoin="round" d="M 27543,13690 L 3459,13690"/>
 <path fill="none" stroke="rgb(179,179,179)" stroke-linejoin="round" d="M 27543,11407 L 3459,11407"/>
 <path fill="none" stroke="rgb(179,179,179)" stroke-linejoin="round" d="M 27543,9122 L 3459,9122"/>
 <path fill="none" stroke="rgb(179,179,179)" stroke-linejoin="round" d="M 27543,6838 L 3459,6838"/>
 <path fill="none" stroke="rgb(179,179,179)" stroke-linejoin="round" d="M 27543,4553 L 3459,4553"/>
 <path fill="none" stroke="rgb(179,179,179)" stroke-linejoin="round" d="M 27543,2269 L 3459,2269"/>
 <path fill="none" stroke="rgb(179,179,179)" stroke-linejoin="round" d="M 3459,22979 L 3459,22829"/>
 <path fill="none" stroke="rgb(179,179,179)" stroke-linejoin="round" d="M 3459,22979 L 3459,22829"/>
 <path fill="none" stroke="rgb(179,179,179)" stroke-linejoin="round" d="M 5311,22979 L 5311,22829"/>
 <path fill="none" stroke="rgb(179,179,179)" stroke-linejoin="round" d="M 5311,22979 L 5311,22829"/>
 <path fill="none" stroke="rgb(179,179,179)" stroke-linejoin="round" d="M 7164,22979 L 7164,22829"/>
 <path fill="none" stroke="rgb(179,179,179)" stroke-linejoin="round" d="M 7164,22979 L 7164,22829"/>
 <path fill="none" stroke="rgb(179,179,179)" stroke-linejoin="round" d="M 9017,22979 L 9017,22829"/>
 <path fill="none" stroke="rgb(179,179,179)" stroke-linejoin="round" d="M 9017,22979 L 9017,22829"/>
 <path fill="none" stroke="rgb(179,179,179)" stroke-linejoin="round" d="M 10869,22979 L 10869,22829"/>
 <path fill="none" stroke="rgb(179,179,179)" stroke-linejoin="round" d="M 10869,22979 L 10869,22829"/>
 <path fill="none" stroke="rgb(179,179,179)" stroke-linejoin="round" d="M 12722,22979 L 12722,22829"/>
 <path fill="none" stroke="rgb(179,179,179)" stroke-linejoin="round" d="M 12722,22979 L 12722,22829"/>
 <path fill="none" stroke="rgb(179,179,179)" stroke-linejoin="round" d="M 14575,22979 L 14575,22829"/>
 <path fill="none" stroke="rgb(179,179,179)" stroke-linejoin="round" d="M 14575,22979 L 14575,22829"/>
 <path fill="none" stroke="rgb(179,179,179)" stroke-linejoin="round" d="M 16426,22979 L 16426,22829"/>
 <path fill="none" stroke="rgb(179,179,179)" stroke-linejoin="round" d="M 16426,22979 L 16426,22829"/>
 <path fill="none" stroke="rgb(179,179,179)" stroke-linejoin="round" d="M 18279,22979 L 18279,22829"/>
 <path fill="none" stroke="rgb(179,179,179)" stroke-linejoin="round" d="M 18279,22979 L 18279,22829"/>
 <path fill="none" stroke="rgb(179,179,179)" stroke-linejoin="round" d="M 20132,22979 L 20132,22829"/>
 <path fill="none" stroke="rgb(179,179,179)" stroke-linejoin="round" d="M 20132,22979 L 20132,22829"/>
 <path fill="none" stroke="rgb(179,179,179)" stroke-linejoin="round" d="M 21984,22979 L 21984,22829"/>
 <path fill="none" stroke="rgb(179,179,179)" stroke-linejoin="round" d="M 21984,22979 L 21984,22829"/>
 <path fill="none" stroke="rgb(179,179,179)" stroke-linejoin="round" d="M 23837,22979 L 23837,22829"/>
 <path fill="none" stroke="rgb(179,179,179)" stroke-linejoin="round" d="M 23837,22979 L 23837,22829"/>
 <path fill="none" stroke="rgb(179,179,179)" stroke-linejoin="round" d="M 25690,22979 L 25690,22829"/>
 <path fill="none" stroke="rgb(179,179,179)" stroke-linejoin="round" d="M 25690,22979 L 25690,22829"/>
 <path fill="none" stroke="rgb(179,179,179)" stroke-linejoin="round" d="M 27543,22979 L 27543,22829"/>
 <path fill="none" stroke="rgb(179,179,179)" stroke-linejoin="round" d="M 27543,22979 L 27543,22829"/>
 <path fill="none" stroke="rgb(179,179,179)" stroke-linejoin="round" d="M 3459,22829 L 27543,22829"/>
 <path fill="none" stroke="rgb(179,179,179)" stroke-linejoin="round" d="M 3309,22829 L 3459,22829"/>
 <path fill="none" stroke="rgb(179,179,179)" stroke-linejoin="round" d="M 3309,22829 L 3459,22829"/>
 <path fill="none" stroke="rgb(179,179,179)" stroke-linejoin="round" d="M 3309,20544 L 3459,20544"/>
 <path fill="none" stroke="rgb(179,179,179)" stroke-linejoin="round" d="M 3309,20544 L 3459,20544"/>
 <path fill="none" stroke="rgb(179,179,179)" stroke-linejoin="round" d="M 3309,18259 L 3459,18259"/>
 <path fill="none" stroke="rgb(179,179,179)" stroke-linejoin="round" d="M 3309,18259 L 3459,18259"/>
 <path fill="none" stroke="rgb(179,179,179)" stroke-linejoin="round" d="M 3309,15975 L 3459,15975"/>
 <path fill="none" stroke="rgb(179,179,179)" stroke-linejoin="round" d="M 3309,15975 L 3459,15975"/>
 <path fill="none" stroke="rgb(179,179,179)" stroke-linejoin="round" d="M 3309,13690 L 3459,13690"/>
 <path fill="none" stroke="rgb(179,179,179)" stroke-linejoin="round" d="M 3309,13690 L 3459,13690"/>
 <path fill="none" stroke="rgb(179,179,179)" stroke-linejoin="round" d="M 3309,11407 L 3459,11407"/>
 <path fill="none" stroke="rgb(179,179,179)" stroke-linejoin="round" d="M 3309,11407 L 3459,11407"/>
 <path fill="none" stroke="rgb(179,179,179)" stroke-linejoin="round" d="M 3309,9122 L 3459,9122"/>
 <path fill="none" stroke="rgb(179,179,179)" stroke-linejoin="round" d="M 3309,9122 L 3459,9122"/>
 <path fill="none" stroke="rgb(179,179,179)" stroke-linejoin="round" d="M 3309,6838 L 3459,6838"/>
 <path fill="none" stroke="rgb(179,179,179)" stroke-linejoin="round" d="M 3309,6838 L 3459,6838"/>
 <path fill="none" stroke="rgb(179,179,179)" stroke-linejoin="round" d="M 3309,4553 L 3459,4553"/>
 <path fill="none" stroke="rgb(179,179,179)" stroke-linejoin="round" d="M 3309,4553 L 3459,4553"/>
 <path fill="none" stroke="rgb(179,179,179)" stroke-linejoin="round" d="M 3309,2269 L 3459,2269"/>
 <path fill="none" stroke="rgb(179,179,179)" stroke-linejoin="round" d="M 3309,2269 L 3459,2269"/>
 <path fill="none" stroke="rgb(179,179,179)" stroke-linejoin="round" d="M 3459,22829 L 3459,2269"/>
 <path fill="none" stroke="rgb(0,69,134)" stroke-width="80" stroke-linejoin="round" d="M 3459,3604 L 5311,12728 7164,12887 9017,12821 10869,12984 12722,11256 14575,12894 16426,12930 18279,9086 20132,12487 21984,13393 23837,13398 25690,13414 27543,13505"/>
 <path fill="rgb(0,69,134)" stroke="none" d="M 3334,3479 L 3334,3729 3584,3729 3584,3479 3334,3479 Z"/>
 <path fill="none" stroke="rgb(0,69,134)" stroke-linejoin="round" d="M 3334,3479 L 3334,3729 3584,3729 3584,3479 3334,3479 Z"/>
 <path fill="rgb(0,69,134)" stroke="none" d="M 5186,12603 L 5186,12853 5436,12853 5436,12603 5186,12603 Z"/>
 <path fill="none" stroke="rgb(0,69,134)" stroke-linejoin="round" d="M 5186,12603 L 5186,12853 5436,12853 5436,12603 5186,12603 Z"/>
 <path fill="rgb(0,69,134)" stroke="none" d="M 7039,12762 L 7039,13012 7289,13012 7289,12762 7039,12762 Z"/>
 <path fill="none" stroke="rgb(0,69,134)" stroke-linejoin="round" d="M 7039,12762 L 7039,13012 7289,13012 7289,12762 7039,12762 Z"/>
 <path fill="rgb(0,69,134)" stroke="none" d="M 8892,12696 L 8892,12946 9142,12946 9142,12696 8892,12696 Z"/>
 <path fill="none" stroke="rgb(0,69,134)" stroke-linejoin="round" d="M 8892,12696 L 8892,12946 9142,12946 9142,12696 8892,12696 Z"/>
 <path fill="rgb(0,69,134)" stroke="none" d="M 10744,12859 L 10744,13109 10994,13109 10994,12859 10744,12859 Z"/>
 <path fill="none" stroke="rgb(0,69,134)" stroke-linejoin="round" d="M 10744,12859 L 10744,13109 10994,13109 10994,12859 10744,12859 Z"/>
 <path fill="rgb(0,69,134)" stroke="none" d="M 12597,11131 L 12597,11381 12847,11381 12847,11131 12597,11131 Z"/>
 <path fill="none" stroke="rgb(0,69,134)" stroke-linejoin="round" d="M 12597,11131 L 12597,11381 12847,11381 12847,11131 12597,11131 Z"/>
 <path fill="rgb(0,69,134)" stroke="none" d="M 14450,12769 L 14450,13019 14700,13019 14700,12769 14450,12769 Z"/>
 <path fill="none" stroke="rgb(0,69,134)" stroke-linejoin="round" d="M 14450,12769 L 14450,13019 14700,13019 14700,12769 14450,12769 Z"/>
 <path fill="rgb(0,69,134)" stroke="none" d="M 16301,12805 L 16301,13055 16551,13055 16551,12805 16301,12805 Z"/>
 <path fill="none" stroke="rgb(0,69,134)" stroke-linejoin="round" d="M 16301,12805 L 16301,13055 16551,13055 16551,12805 16301,12805 Z"/>
 <path fill="rgb(0,69,134)" stroke="none" d="M 18154,8961 L 18154,9211 18404,9211 18404,8961 18154,8961 Z"/>
 <path fill="none" stroke="rgb(0,69,134)" stroke-linejoin="round" d="M 18154,8961 L 18154,9211 18404,9211 18404,8961 18154,8961 Z"/>
 <path fill="rgb(0,69,134)" stroke="none" d="M 20007,12362 L 20007,12612 20257,12612 20257,12362 20007,12362 Z"/>
 <path fill="none" stroke="rgb(0,69,134)" stroke-linejoin="round" d="M 20007,12362 L 20007,12612 20257,12612 20257,12362 20007,12362 Z"/>
 <path fill="rgb(0,69,134)" stroke="none" d="M 21859,13268 L 21859,13518 22109,13518 22109,13268 21859,13268 Z"/>
 <path fill="none" stroke="rgb(0,69,134)" stroke-linejoin="round" d="M 21859,13268 L 21859,13518 22109,13518 22109,13268 21859,13268 Z"/>
 <path fill="rgb(0,69,134)" stroke="none" d="M 23712,13273 L 23712,13523 23962,13523 23962,13273 23712,13273 Z"/>
 <path fill="none" stroke="rgb(0,69,134)" stroke-linejoin="round" d="M 23712,13273 L 23712,13523 23962,13523 23962,13273 23712,13273 Z"/>
 <path fill="rgb(0,69,134)" stroke="none" d="M 25565,13289 L 25565,13539 25815,13539 25815,13289 25565,13289 Z"/>
 <path fill="none" stroke="rgb(0,69,134)" stroke-linejoin="round" d="M 25565,13289 L 25565,13539 25815,13539 25815,13289 25565,13289 Z"/>
 <path fill="rgb(0,69,134)" stroke="none" d="M 27418,13380 L 27418,13630 27668,13630 27668,13380 27418,13380 Z"/>
 <path fill="none" stroke="rgb(0,69,134)" stroke-linejoin="round" d="M 27418,13380 L 27418,13630 27668,13630 27668,13380 27418,13380 Z"/>
 <path fill="none" stroke="rgb(255,66,14)" stroke-width="80" stroke-linejoin="round" d="M 3459,11992 L 5311,12296 7164,13094 9017,12618 10869,12989 12722,13249 14575,12807 16426,12828 18279,11288 20132,12496 21984,13270 23837,13553 25690,13418 27543,13126"/>
 <path fill="rgb(255,66,14)" stroke="none" d="M 3334,11992 L 3459,12117 3584,11992 3459,11867 3334,11992 Z"/>
 <path fill="none" stroke="rgb(255,66,14)" stroke-linejoin="round" d="M 3334,11992 L 3459,12117 3584,11992 3459,11867 3334,11992 Z"/>
 <path fill="rgb(255,66,14)" stroke="none" d="M 5186,12296 L 5311,12421 5436,12296 5311,12172 5186,12296 Z"/>
 <path fill="none" stroke="rgb(255,66,14)" stroke-linejoin="round" d="M 5186,12296 L 5311,12421 5436,12296 5311,12172 5186,12296 Z"/>
 <path fill="rgb(255,66,14)" stroke="none" d="M 7039,13094 L 7164,13219 7289,13094 7164,12969 7039,13094 Z"/>
 <path fill="none" stroke="rgb(255,66,14)" stroke-linejoin="round" d="M 7039,13094 L 7164,13219 7289,13094 7164,12969 7039,13094 Z"/>
 <path fill="rgb(255,66,14)" stroke="none" d="M 8892,12618 L 9017,12743 9142,12618 9017,12493 8892,12618 Z"/>
 <path fill="none" stroke="rgb(255,66,14)" stroke-linejoin="round" d="M 8892,12618 L 9017,12743 9142,12618 9017,12493 8892,12618 Z"/>
 <path fill="rgb(255,66,14)" stroke="none" d="M 10744,12989 L 10869,13114 10994,12989 10869,12864 10744,12989 Z"/>
 <path fill="none" stroke="rgb(255,66,14)" stroke-linejoin="round" d="M 10744,12989 L 10869,13114 10994,12989 10869,12864 10744,12989 Z"/>
 <path fill="rgb(255,66,14)" stroke="none" d="M 12597,13249 L 12722,13374 12847,13249 12722,13124 12597,13249 Z"/>
 <path fill="none" stroke="rgb(255,66,14)" stroke-linejoin="round" d="M 12597,13249 L 12722,13374 12847,13249 12722,13124 12597,13249 Z"/>
 <path fill="rgb(255,66,14)" stroke="none" d="M 14450,12807 L 14575,12932 14700,12807 14575,12682 14450,12807 Z"/>
 <path fill="none" stroke="rgb(255,66,14)" stroke-linejoin="round" d="M 14450,12807 L 14575,12932 14700,12807 14575,12682 14450,12807 Z"/>
 <path fill="rgb(255,66,14)" stroke="none" d="M 16301,12828 L 16426,12953 16551,12828 16426,12703 16301,12828 Z"/>
 <path fill="none" stroke="rgb(255,66,14)" stroke-linejoin="round" d="M 16301,12828 L 16426,12953 16551,12828 16426,12703 16301,12828 Z"/>
 <path fill="rgb(255,66,14)" stroke="none" d="M 18154,11288 L 18279,11413 18404,11288 18279,11163 18154,11288 Z"/>
 <path fill="none" stroke="rgb(255,66,14)" stroke-linejoin="round" d="M 18154,11288 L 18279,11413 18404,11288 18279,11163 18154,11288 Z"/>
 <path fill="rgb(255,66,14)" stroke="none" d="M 20007,12496 L 20132,12621 20257,12496 20132,12371 20007,12496 Z"/>
 <path fill="none" stroke="rgb(255,66,14)" stroke-linejoin="round" d="M 20007,12496 L 20132,12621 20257,12496 20132,12371 20007,12496 Z"/>
 <path fill="rgb(255,66,14)" stroke="none" d="M 21859,13270 L 21984,13395 22109,13270 21984,13145 21859,13270 Z"/>
 <path fill="none" stroke="rgb(255,66,14)" stroke-linejoin="round" d="M 21859,13270 L 21984,13395 22109,13270 21984,13145 21859,13270 Z"/>
 <path fill="rgb(255,66,14)" stroke="none" d="M 23712,13553 L 23837,13678 23962,13553 23837,13428 23712,13553 Z"/>
 <path fill="none" stroke="rgb(255,66,14)" stroke-linejoin="round" d="M 23712,13553 L 23837,13678 23962,13553 23837,13428 23712,13553 Z"/>
 <path fill="rgb(255,66,14)" stroke="none" d="M 25565,13418 L 25690,13543 25815,13418 25690,13293 25565,13418 Z"/>
 <path fill="none" stroke="rgb(255,66,14)" stroke-linejoin="round" d="M 25565,13418 L 25690,13543 25815,13418 25690,13293 25565,13418 Z"/>
 <path fill="rgb(255,66,14)" stroke="none" d="M 27418,13126 L 27543,13251 27668,13126 27543,13001 27418,13126 Z"/>
 <path fill="none" stroke="rgb(255,66,14)" stroke-linejoin="round" d="M 27418,13126 L 27543,13251 27668,13126 27543,13001 27418,13126 Z"/>
 <path fill="none" stroke="rgb(255,211,32)" stroke-width="80" stroke-linejoin="round" d="M 3459,11969 L 5311,12744 7164,12958 9017,12955 10869,13031 12722,13110 14575,13153 16426,12878 18279,12414 20132,12470 21984,13349 23837,13333 25690,13391 27543,13058"/>
 <path fill="rgb(255,211,32)" stroke="none" d="M 3334,11844 L 3459,12094 3584,11844 3334,11844 Z"/>
 <path fill="none" stroke="rgb(255,211,32)" stroke-linejoin="round" d="M 3334,11844 L 3459,12094 3584,11844 3334,11844 Z"/>
 <path fill="rgb(255,211,32)" stroke="none" d="M 5186,12619 L 5311,12869 5436,12619 5186,12619 Z"/>
 <path fill="none" stroke="rgb(255,211,32)" stroke-linejoin="round" d="M 5186,12619 L 5311,12869 5436,12619 5186,12619 Z"/>
 <path fill="rgb(255,211,32)" stroke="none" d="M 7039,12833 L 7164,13083 7289,12833 7039,12833 Z"/>
 <path fill="none" stroke="rgb(255,211,32)" stroke-linejoin="round" d="M 7039,12833 L 7164,13083 7289,12833 7039,12833 Z"/>
 <path fill="rgb(255,211,32)" stroke="none" d="M 8892,12830 L 9017,13080 9142,12830 8892,12830 Z"/>
 <path fill="none" stroke="rgb(255,211,32)" stroke-linejoin="round" d="M 8892,12830 L 9017,13080 9142,12830 8892,12830 Z"/>
 <path fill="rgb(255,211,32)" stroke="none" d="M 10744,12906 L 10869,13156 10994,12906 10744,12906 Z"/>
 <path fill="none" stroke="rgb(255,211,32)" stroke-linejoin="round" d="M 10744,12906 L 10869,13156 10994,12906 10744,12906 Z"/>
 <path fill="rgb(255,211,32)" stroke="none" d="M 12597,12985 L 12722,13235 12847,12985 12597,12985 Z"/>
 <path fill="none" stroke="rgb(255,211,32)" stroke-linejoin="round" d="M 12597,12985 L 12722,13235 12847,12985 12597,12985 Z"/>
 <path fill="rgb(255,211,32)" stroke="none" d="M 14450,13028 L 14575,13278 14700,13028 14450,13028 Z"/>
 <path fill="none" stroke="rgb(255,211,32)" stroke-linejoin="round" d="M 14450,13028 L 14575,13278 14700,13028 14450,13028 Z"/>
 <path fill="rgb(255,211,32)" stroke="none" d="M 16301,12753 L 16426,13003 16551,12753 16301,12753 Z"/>
 <path fill="none" stroke="rgb(255,211,32)" stroke-linejoin="round" d="M 16301,12753 L 16426,13003 16551,12753 16301,12753 Z"/>
 <path fill="rgb(255,211,32)" stroke="none" d="M 18154,12289 L 18279,12539 18404,12289 18154,12289 Z"/>
 <path fill="none" stroke="rgb(255,211,32)" stroke-linejoin="round" d="M 18154,12289 L 18279,12539 18404,12289 18154,12289 Z"/>
 <path fill="rgb(255,211,32)" stroke="none" d="M 20007,12345 L 20132,12595 20257,12345 20007,12345 Z"/>
 <path fill="none" stroke="rgb(255,211,32)" stroke-linejoin="round" d="M 20007,12345 L 20132,12595 20257,12345 20007,12345 Z"/>
 <path fill="rgb(255,211,32)" stroke="none" d="M 21859,13224 L 21984,13474 22109,13224 21859,13224 Z"/>
 <path fill="none" stroke="rgb(255,211,32)" stroke-linejoin="round" d="M 21859,13224 L 21984,13474 22109,13224 21859,13224 Z"/>
 <path fill="rgb(255,211,32)" stroke="none" d="M 23712,13208 L 23837,13458 23962,13208 23712,13208 Z"/>
 <path fill="none" stroke="rgb(255,211,32)" stroke-linejoin="round" d="M 23712,13208 L 23837,13458 23962,13208 23712,13208 Z"/>
 <path fill="rgb(255,211,32)" stroke="none" d="M 25565,13266 L 25690,13516 25815,13266 25565,13266 Z"/>
 <path fill="none" stroke="rgb(255,211,32)" stroke-linejoin="round" d="M 25565,13266 L 25690,13516 25815,13266 25565,13266 Z"/>
 <path fill="rgb(255,211,32)" stroke="none" d="M 27418,12933 L 27543,13183 27668,12933 27418,12933 Z"/>
 <path fill="none" stroke="rgb(255,211,32)" stroke-linejoin="round" d="M 27418,12933 L 27543,13183 27668,12933 27418,12933 Z"/>
 <path fill="none" stroke="rgb(87,157,28)" stroke-width="80" stroke-linejoin="round" d="M 3459,7086 L 5311,12374 7164,12918 9017,12745 10869,12928 12722,12488 14575,12715 16426,12820 18279,12379 20132,12359 21984,13302 23837,13343 25690,12632 27543,12884"/>
 <path fill="rgb(87,157,28)" stroke="none" d="M 3334,7211 L 3584,7211 3459,6961 3334,7211 Z"/>
 <path fill="none" stroke="rgb(87,157,28)" stroke-linejoin="round" d="M 3334,7211 L 3584,7211 3459,6961 3334,7211 Z"/>
 <path fill="rgb(87,157,28)" stroke="none" d="M 5186,12499 L 5436,12499 5311,12249 5186,12499 Z"/>
 <path fill="none" stroke="rgb(87,157,28)" stroke-linejoin="round" d="M 5186,12499 L 5436,12499 5311,12249 5186,12499 Z"/>
 <path fill="rgb(87,157,28)" stroke="none" d="M 7039,13043 L 7289,13043 7164,12793 7039,13043 Z"/>
 <path fill="none" stroke="rgb(87,157,28)" stroke-linejoin="round" d="M 7039,13043 L 7289,13043 7164,12793 7039,13043 Z"/>
 <path fill="rgb(87,157,28)" stroke="none" d="M 8892,12870 L 9142,12870 9017,12620 8892,12870 Z"/>
 <path fill="none" stroke="rgb(87,157,28)" stroke-linejoin="round" d="M 8892,12870 L 9142,12870 9017,12620 8892,12870 Z"/>
 <path fill="rgb(87,157,28)" stroke="none" d="M 10744,13053 L 10994,13053 10869,12803 10744,13053 Z"/>
 <path fill="none" stroke="rgb(87,157,28)" stroke-linejoin="round" d="M 10744,13053 L 10994,13053 10869,12803 10744,13053 Z"/>
 <path fill="rgb(87,157,28)" stroke="none" d="M 12597,12613 L 12847,12613 12722,12363 12597,12613 Z"/>
 <path fill="none" stroke="rgb(87,157,28)" stroke-linejoin="round" d="M 12597,12613 L 12847,12613 12722,12363 12597,12613 Z"/>
 <path fill="rgb(87,157,28)" stroke="none" d="M 14450,12840 L 14700,12840 14575,12590 14450,12840 Z"/>
 <path fill="none" stroke="rgb(87,157,28)" stroke-linejoin="round" d="M 14450,12840 L 14700,12840 14575,12590 14450,12840 Z"/>
 <path fill="rgb(87,157,28)" stroke="none" d="M 16301,12945 L 16551,12945 16426,12695 16301,12945 Z"/>
 <path fill="none" stroke="rgb(87,157,28)" stroke-linejoin="round" d="M 16301,12945 L 16551,12945 16426,12695 16301,12945 Z"/>
 <path fill="rgb(87,157,28)" stroke="none" d="M 18154,12504 L 18404,12504 18279,12254 18154,12504 Z"/>
 <path fill="none" stroke="rgb(87,157,28)" stroke-linejoin="round" d="M 18154,12504 L 18404,12504 18279,12254 18154,12504 Z"/>
 <path fill="rgb(87,157,28)" stroke="none" d="M 20007,12484 L 20257,12484 20132,12234 20007,12484 Z"/>
 <path fill="none" stroke="rgb(87,157,28)" stroke-linejoin="round" d="M 20007,12484 L 20257,12484 20132,12234 20007,12484 Z"/>
 <path fill="rgb(87,157,28)" stroke="none" d="M 21859,13427 L 22109,13427 21984,13177 21859,13427 Z"/>
 <path fill="none" stroke="rgb(87,157,28)" stroke-linejoin="round" d="M 21859,13427 L 22109,13427 21984,13177 21859,13427 Z"/>
 <path fill="rgb(87,157,28)" stroke="none" d="M 23712,13468 L 23962,13468 23837,13218 23712,13468 Z"/>
 <path fill="none" stroke="rgb(87,157,28)" stroke-linejoin="round" d="M 23712,13468 L 23962,13468 23837,13218 23712,13468 Z"/>
 <path fill="rgb(87,157,28)" stroke="none" d="M 25565,12757 L 25815,12757 25690,12507 25565,12757 Z"/>
 <path fill="none" stroke="rgb(87,157,28)" stroke-linejoin="round" d="M 25565,12757 L 25815,12757 25690,12507 25565,12757 Z"/>
 <path fill="rgb(87,157,28)" stroke="none" d="M 27418,13009 L 27668,13009 27543,12759 27418,13009 Z"/>
 <path fill="none" stroke="rgb(87,157,28)" stroke-linejoin="round" d="M 27418,13009 L 27668,13009 27543,12759 27418,13009 Z"/>
 <path fill="none" stroke="rgb(126,0,33)" stroke-width="80" stroke-linejoin="round" d="M 3459,10088 L 5311,12579 7164,12814 9017,12967 10869,13062 12722,11870 14575,11659 16426,12570 18279,12402 20132,12819 21984,13147 23837,13367 25690,9854 27543,12968"/>
 <path fill="rgb(126,0,33)" stroke="none" d="M 3334,9963 L 3334,10213 3584,10088 3334,9963 Z"/>
 <path fill="none" stroke="rgb(126,0,33)" stroke-linejoin="round" d="M 3334,9963 L 3334,10213 3584,10088 3334,9963 Z"/>
 <path fill="rgb(126,0,33)" stroke="none" d="M 5186,12454 L 5186,12704 5436,12579 5186,12454 Z"/>
 <path fill="none" stroke="rgb(126,0,33)" stroke-linejoin="round" d="M 5186,12454 L 5186,12704 5436,12579 5186,12454 Z"/>
 <path fill="rgb(126,0,33)" stroke="none" d="M 7039,12689 L 7039,12939 7289,12814 7039,12689 Z"/>
 <path fill="none" stroke="rgb(126,0,33)" stroke-linejoin="round" d="M 7039,12689 L 7039,12939 7289,12814 7039,12689 Z"/>
 <path fill="rgb(126,0,33)" stroke="none" d="M 8892,12842 L 8892,13092 9142,12967 8892,12842 Z"/>
 <path fill="none" stroke="rgb(126,0,33)" stroke-linejoin="round" d="M 8892,12842 L 8892,13092 9142,12967 8892,12842 Z"/>
 <path fill="rgb(126,0,33)" stroke="none" d="M 10744,12937 L 10744,13187 10994,13062 10744,12937 Z"/>
 <path fill="none" stroke="rgb(126,0,33)" stroke-linejoin="round" d="M 10744,12937 L 10744,13187 10994,13062 10744,12937 Z"/>
 <path fill="rgb(126,0,33)" stroke="none" d="M 12597,11745 L 12597,11995 12847,11870 12597,11745 Z"/>
 <path fill="none" stroke="rgb(126,0,33)" stroke-linejoin="round" d="M 12597,11745 L 12597,11995 12847,11870 12597,11745 Z"/>
 <path fill="rgb(126,0,33)" stroke="none" d="M 14450,11534 L 14450,11784 14700,11659 14450,11534 Z"/>
 <path fill="none" stroke="rgb(126,0,33)" stroke-linejoin="round" d="M 14450,11534 L 14450,11784 14700,11659 14450,11534 Z"/>
 <path fill="rgb(126,0,33)" stroke="none" d="M 16301,12445 L 16301,12695 16551,12570 16301,12445 Z"/>
 <path fill="none" stroke="rgb(126,0,33)" stroke-linejoin="round" d="M 16301,12445 L 16301,12695 16551,12570 16301,12445 Z"/>
 <path fill="rgb(126,0,33)" stroke="none" d="M 18154,12277 L 18154,12527 18404,12402 18154,12277 Z"/>
 <path fill="none" stroke="rgb(126,0,33)" stroke-linejoin="round" d="M 18154,12277 L 18154,12527 18404,12402 18154,12277 Z"/>
 <path fill="rgb(126,0,33)" stroke="none" d="M 20007,12694 L 20007,12944 20257,12819 20007,12694 Z"/>
 <path fill="none" stroke="rgb(126,0,33)" stroke-linejoin="round" d="M 20007,12694 L 20007,12944 20257,12819 20007,12694 Z"/>
 <path fill="rgb(126,0,33)" stroke="none" d="M 21859,13022 L 21859,13272 22109,13147 21859,13022 Z"/>
 <path fill="none" stroke="rgb(126,0,33)" stroke-linejoin="round" d="M 21859,13022 L 21859,13272 22109,13147 21859,13022 Z"/>
 <path fill="rgb(126,0,33)" stroke="none" d="M 23712,13242 L 23712,13492 23962,13367 23712,13242 Z"/>
 <path fill="none" stroke="rgb(126,0,33)" stroke-linejoin="round" d="M 23712,13242 L 23712,13492 23962,13367 23712,13242 Z"/>
 <path fill="rgb(126,0,33)" stroke="none" d="M 25565,9729 L 25565,9979 25815,9854 25565,9729 Z"/>
 <path fill="none" stroke="rgb(126,0,33)" stroke-linejoin="round" d="M 25565,9729 L 25565,9979 25815,9854 25565,9729 Z"/>
 <path fill="rgb(126,0,33)" stroke="none" d="M 27418,12843 L 27418,13093 27668,12968 27418,12843 Z"/>
 <path fill="none" stroke="rgb(126,0,33)" stroke-linejoin="round" d="M 27418,12843 L 27418,13093 27668,12968 27418,12843 Z"/>
 <path fill="none" stroke="rgb(131,202,255)" stroke-width="80" stroke-linejoin="round" d="M 3459,11996 L 5311,12632 7164,12948 9017,12946 10869,13100 12722,12109 14575,13013 16426,12580 18279,12510 20132,13356 21984,13322 23837,13351 25690,13322 27543,12818"/>
 <path fill="rgb(131,202,255)" stroke="none" d="M 3334,11996 L 3584,12121 3584,11871 3334,11996 Z"/>
 <path fill="none" stroke="rgb(131,202,255)" stroke-linejoin="round" d="M 3334,11996 L 3584,12121 3584,11871 3334,11996 Z"/>
 <path fill="rgb(131,202,255)" stroke="none" d="M 5186,12632 L 5436,12757 5436,12507 5186,12632 Z"/>
 <path fill="none" stroke="rgb(131,202,255)" stroke-linejoin="round" d="M 5186,12632 L 5436,12757 5436,12507 5186,12632 Z"/>
 <path fill="rgb(131,202,255)" stroke="none" d="M 7039,12948 L 7289,13073 7289,12823 7039,12948 Z"/>
 <path fill="none" stroke="rgb(131,202,255)" stroke-linejoin="round" d="M 7039,12948 L 7289,13073 7289,12823 7039,12948 Z"/>
 <path fill="rgb(131,202,255)" stroke="none" d="M 8892,12946 L 9142,13071 9142,12821 8892,12946 Z"/>
 <path fill="none" stroke="rgb(131,202,255)" stroke-linejoin="round" d="M 8892,12946 L 9142,13071 9142,12821 8892,12946 Z"/>
 <path fill="rgb(131,202,255)" stroke="none" d="M 10744,13100 L 10994,13225 10994,12975 10744,13100 Z"/>
 <path fill="none" stroke="rgb(131,202,255)" stroke-linejoin="round" d="M 10744,13100 L 10994,13225 10994,12975 10744,13100 Z"/>
 <path fill="rgb(131,202,255)" stroke="none" d="M 12597,12109 L 12847,12233 12847,11984 12597,12109 Z"/>
 <path fill="none" stroke="rgb(131,202,255)" stroke-linejoin="round" d="M 12597,12109 L 12847,12233 12847,11984 12597,12109 Z"/>
 <path fill="rgb(131,202,255)" stroke="none" d="M 14450,13013 L 14700,13138 14700,12888 14450,13013 Z"/>
 <path fill="none" stroke="rgb(131,202,255)" stroke-linejoin="round" d="M 14450,13013 L 14700,13138 14700,12888 14450,13013 Z"/>
 <path fill="rgb(131,202,255)" stroke="none" d="M 16301,12580 L 16551,12705 16551,12455 16301,12580 Z"/>
 <path fill="none" stroke="rgb(131,202,255)" stroke-linejoin="round" d="M 16301,12580 L 16551,12705 16551,12455 16301,12580 Z"/>
 <path fill="rgb(131,202,255)" stroke="none" d="M 18154,12510 L 18404,12635 18404,12385 18154,12510 Z"/>
 <path fill="none" stroke="rgb(131,202,255)" stroke-linejoin="round" d="M 18154,12510 L 18404,12635 18404,12385 18154,12510 Z"/>
 <path fill="rgb(131,202,255)" stroke="none" d="M 20007,13356 L 20257,13481 20257,13231 20007,13356 Z"/>
 <path fill="none" stroke="rgb(131,202,255)" stroke-linejoin="round" d="M 20007,13356 L 20257,13481 20257,13231 20007,13356 Z"/>
 <path fill="rgb(131,202,255)" stroke="none" d="M 21859,13322 L 22109,13447 22109,13197 21859,13322 Z"/>
 <path fill="none" stroke="rgb(131,202,255)" stroke-linejoin="round" d="M 21859,13322 L 22109,13447 22109,13197 21859,13322 Z"/>
 <path fill="rgb(131,202,255)" stroke="none" d="M 23712,13351 L 23962,13476 23962,13226 23712,13351 Z"/>
 <path fill="none" stroke="rgb(131,202,255)" stroke-linejoin="round" d="M 23712,13351 L 23962,13476 23962,13226 23712,13351 Z"/>
 <path fill="rgb(131,202,255)" stroke="none" d="M 25565,13322 L 25815,13447 25815,13197 25565,13322 Z"/>
 <path fill="none" stroke="rgb(131,202,255)" stroke-linejoin="round" d="M 25565,13322 L 25815,13447 25815,13197 25565,13322 Z"/>
 <path fill="rgb(131,202,255)" stroke="none" d="M 27418,12818 L 27668,12943 27668,12693 27418,12818 Z"/>
 <path fill="none" stroke="rgb(131,202,255)" stroke-linejoin="round" d="M 27418,12818 L 27668,12943 27668,12693 27418,12818 Z"/>
 <text class="TextShape"><tspan class="TextParagraph" font-family="Liberation Sans" font-size="353px" font-weight="400"><tspan class="TextPosition" x="3072" y="23389"><tspan fill="rgb(0,0,0)" stroke="none">4096</tspan></tspan></tspan></text>
 <text class="TextShape"><tspan class="TextParagraph" font-family="Liberation Sans" font-size="353px" font-weight="400"><tspan class="TextPosition" x="4924" y="23389"><tspan fill="rgb(0,0,0)" stroke="none">8192</tspan></tspan></tspan></text>
 <text class="TextShape"><tspan class="TextParagraph" font-family="Liberation Sans" font-size="353px" font-weight="400"><tspan class="TextPosition" x="6668" y="23389"><tspan fill="rgb(0,0,0)" stroke="none">16384</tspan></tspan></tspan></text>
 <text class="TextShape"><tspan class="TextParagraph" font-family="Liberation Sans" font-size="353px" font-weight="400"><tspan class="TextPosition" x="8521" y="23389"><tspan fill="rgb(0,0,0)" stroke="none">32768</tspan></tspan></tspan></text>
 <text class="TextShape"><tspan class="TextParagraph" font-family="Liberation Sans" font-size="353px" font-weight="400"><tspan class="TextPosition" x="10373" y="23389"><tspan fill="rgb(0,0,0)" stroke="none">65536</tspan></tspan></tspan></text>
 <text class="TextShape"><tspan class="TextParagraph" font-family="Liberation Sans" font-size="353px" font-weight="400"><tspan class="TextPosition" x="12133" y="23389"><tspan fill="rgb(0,0,0)" stroke="none">131072</tspan></tspan></tspan></text>
 <text class="TextShape"><tspan class="TextParagraph" font-family="Liberation Sans" font-size="353px" font-weight="400"><tspan class="TextPosition" x="13986" y="23389"><tspan fill="rgb(0,0,0)" stroke="none">262144</tspan></tspan></tspan></text>
 <text class="TextShape"><tspan class="TextParagraph" font-family="Liberation Sans" font-size="353px" font-weight="400"><tspan class="TextPosition" x="15838" y="23389"><tspan fill="rgb(0,0,0)" stroke="none">524288</tspan></tspan></tspan></text>
 <text class="TextShape"><tspan class="TextParagraph" font-family="Liberation Sans" font-size="353px" font-weight="400"><tspan class="TextPosition" x="17598" y="23389"><tspan fill="rgb(0,0,0)" stroke="none">1048576</tspan></tspan></tspan></text>
 <text class="TextShape"><tspan class="TextParagraph" font-family="Liberation Sans" font-size="353px" font-weight="400"><tspan class="TextPosition" x="19451" y="23389"><tspan fill="rgb(0,0,0)" stroke="none">2097152</tspan></tspan></tspan></text>
 <text class="TextShape"><tspan class="TextParagraph" font-family="Liberation Sans" font-size="353px" font-weight="400"><tspan class="TextPosition" x="21303" y="23389"><tspan fill="rgb(0,0,0)" stroke="none">4194304</tspan></tspan></tspan></text>
 <text class="TextShape"><tspan class="TextParagraph" font-family="Liberation Sans" font-size="353px" font-weight="400"><tspan class="TextPosition" x="23156" y="23389"><tspan fill="rgb(0,0,0)" stroke="none">8388608</tspan></tspan></tspan></text>
 <text class="TextShape"><tspan class="TextParagraph" font-family="Liberation Sans" font-size="353px" font-weight="400"><tspan class="TextPosition" x="24901" y="23389"><tspan fill="rgb(0,0,0)" stroke="none">16777216</tspan></tspan></tspan></text>
 <text class="TextShape"><tspan class="TextParagraph" font-family="Liberation Sans" font-size="353px" font-weight="400"><tspan class="TextPosition" x="26754" y="23389"><tspan fill="rgb(0,0,0)" stroke="none">33554432</tspan></tspan></tspan></text>
 <text class="TextShape"><tspan class="TextParagraph" font-family="Liberation Sans" font-size="353px" font-weight="400"><tspan class="TextPosition" x="3023" y="22954"><tspan fill="rgb(0,0,0)" stroke="none">0</tspan></tspan></tspan></text>
 <text class="TextShape"><tspan class="TextParagraph" font-family="Liberation Sans" font-size="353px" font-weight="400"><tspan class="TextPosition" x="1258" y="20669"><tspan fill="rgb(0,0,0)" stroke="none">2000000000</tspan></tspan></tspan></text>
 <text class="TextShape"><tspan class="TextParagraph" font-family="Liberation Sans" font-size="353px" font-weight="400"><tspan class="TextPosition" x="1258" y="18384"><tspan fill="rgb(0,0,0)" stroke="none">4000000000</tspan></tspan></tspan></text>
 <text class="TextShape"><tspan class="TextParagraph" font-family="Liberation Sans" font-size="353px" font-weight="400"><tspan class="TextPosition" x="1258" y="16100"><tspan fill="rgb(0,0,0)" stroke="none">6000000000</tspan></tspan></tspan></text>
 <text class="TextShape"><tspan class="TextParagraph" font-family="Liberation Sans" font-size="353px" font-weight="400"><tspan class="TextPosition" x="1258" y="13815"><tspan fill="rgb(0,0,0)" stroke="none">8000000000</tspan></tspan></tspan></text>
 <text class="TextShape"><tspan class="TextParagraph" font-family="Liberation Sans" font-size="353px" font-weight="400"><tspan class="TextPosition" x="1041" y="11531"><tspan fill="rgb(0,0,0)" stroke="none">10000000000</tspan></tspan></tspan></text>
 <text class="TextShape"><tspan class="TextParagraph" font-family="Liberation Sans" font-size="353px" font-weight="400"><tspan class="TextPosition" x="1041" y="9246"><tspan fill="rgb(0,0,0)" stroke="none">12000000000</tspan></tspan></tspan></text>
 <text class="TextShape"><tspan class="TextParagraph" font-family="Liberation Sans" font-size="353px" font-weight="400"><tspan class="TextPosition" x="1041" y="6962"><tspan fill="rgb(0,0,0)" stroke="none">14000000000</tspan></tspan></tspan></text>
 <text class="TextShape"><tspan class="TextParagraph" font-family="Liberation Sans" font-size="353px" font-weight="400"><tspan class="TextPosition" x="1041" y="4677"><tspan fill="rgb(0,0,0)" stroke="none">16000000000</tspan></tspan></tspan></text>
 <text class="TextShape"><tspan class="TextParagraph" font-family="Liberation Sans" font-size="353px" font-weight="400"><tspan class="TextPosition" x="1041" y="2393"><tspan fill="rgb(0,0,0)" stroke="none">18000000000</tspan></tspan></tspan></text>
 <path fill="none" stroke="rgb(0,69,134)" stroke-width="80" stroke-linejoin="round" d="M 1935,860 L 2735,860"/>
 <path fill="rgb(0,69,134)" stroke="none" d="M 2229,755 L 2229,965 2440,965 2440,755 2229,755 Z"/>
 <path fill="none" stroke="rgb(0,69,134)" stroke-linejoin="round" d="M 2229,755 L 2229,965 2440,965 2440,755 2229,755 Z"/>
 <path fill="none" stroke="rgb(255,66,14)" stroke-width="80" stroke-linejoin="round" d="M 9701,860 L 10501,860"/>
 <path fill="rgb(255,66,14)" stroke="none" d="M 9995,860 L 10101,965 10206,860 10101,755 9995,860 Z"/>
 <path fill="none" stroke="rgb(255,66,14)" stroke-linejoin="round" d="M 9995,860 L 10101,965 10206,860 10101,755 9995,860 Z"/>
 <path fill="none" stroke="rgb(255,211,32)" stroke-width="80" stroke-linejoin="round" d="M 19077,860 L 19877,860"/>
 <path fill="rgb(255,211,32)" stroke="none" d="M 19371,755 L 19477,965 19582,755 19371,755 Z"/>
 <path fill="none" stroke="rgb(255,211,32)" stroke-linejoin="round" d="M 19371,755 L 19477,965 19582,755 19371,755 Z"/>
 <path fill="none" stroke="rgb(87,157,28)" stroke-width="80" stroke-linejoin="round" d="M 1935,1564 L 2735,1564"/>
 <path fill="rgb(87,157,28)" stroke="none" d="M 2229,1669 L 2440,1669 2335,1459 2229,1669 Z"/>
 <path fill="none" stroke="rgb(87,157,28)" stroke-linejoin="round" d="M 2229,1669 L 2440,1669 2335,1459 2229,1669 Z"/>
 <path fill="none" stroke="rgb(126,0,33)" stroke-width="80" stroke-linejoin="round" d="M 9701,1564 L 10501,1564"/>
 <path fill="rgb(126,0,33)" stroke="none" d="M 9995,1459 L 9995,1669 10206,1564 9995,1459 Z"/>
 <path fill="none" stroke="rgb(126,0,33)" stroke-linejoin="round" d="M 9995,1459 L 9995,1669 10206,1564 9995,1459 Z"/>
 <path fill="none" stroke="rgb(131,202,255)" stroke-width="80" stroke-linejoin="round" d="M 19077,1564 L 19877,1564"/>
 <path fill="rgb(131,202,255)" stroke="none" d="M 19371,1564 L 19582,1669 19582,1459 19371,1564 Z"/>
 <path fill="none" stroke="rgb(131,202,255)" stroke-linejoin="round" d="M 19371,1564 L 19582,1669 19582,1459 19371,1564 Z"/>
 <text class="TextShape"><tspan class="TextParagraph" font-family="Liberation Sans" font-size="353px" font-weight="400"><tspan class="TextPosition" x="2835" y="984"><tspan fill="rgb(0,0,0)" stroke="none">FileInputStream with byte array reads</tspan></tspan></tspan></text>
 <text class="TextShape"><tspan class="TextParagraph" font-family="Liberation Sans" font-size="353px" font-weight="400"><tspan class="TextPosition" x="10601" y="984"><tspan fill="rgb(0,0,0)" stroke="none">BufferedInputStream with byte array reads</tspan></tspan></tspan></text>
 <text class="TextShape"><tspan class="TextParagraph" font-family="Liberation Sans" font-size="353px" font-weight="400"><tspan class="TextPosition" x="19977" y="984"><tspan fill="rgb(0,0,0)" stroke="none">RandomAccessFile with byte array reads</tspan></tspan></tspan></text>
 <text class="TextShape"><tspan class="TextParagraph" font-family="Liberation Sans" font-size="353px" font-weight="400"><tspan class="TextPosition" x="2835" y="1688"><tspan fill="rgb(0,0,0)" stroke="none">FileChannel with allocated ByteBuffer</tspan></tspan></tspan></text>
 <text class="TextShape"><tspan class="TextParagraph" font-family="Liberation Sans" font-size="353px" font-weight="400"><tspan class="TextPosition" x="10601" y="1688"><tspan fill="rgb(0,0,0)" stroke="none">FileChannel with ByteBuffer wrapped byte array</tspan></tspan></tspan></text>
 <text class="TextShape"><tspan class="TextParagraph" font-family="Liberation Sans" font-size="353px" font-weight="400"><tspan class="TextPosition" x="19977" y="1688"><tspan fill="rgb(0,0,0)" stroke="none">FileChannel with direct allocated ByteBuffer</tspan></tspan></tspan></text>
</svg>